<mxfile host="65bd71144e">
    <diagram id="UMU48CHHXsTOhND15Ezq" name="Page-1">
        <mxGraphModel dx="737" dy="571" grid="0" gridSize="10" guides="1" tooltips="1" connect="1" arrows="1" fold="1" page="1" pageScale="1" pageWidth="850" pageHeight="1100" background="#000000" math="0" shadow="0">
            <root>
                <mxCell id="0"/>
                <mxCell id="1" parent="0"/>
                <mxCell id="2" value="" style="shape=flexArrow;endArrow=classic;html=1;strokeColor=#06A254;" edge="1" parent="1">
                    <mxGeometry width="50" height="50" relative="1" as="geometry">
                        <mxPoint x="387" y="80" as="sourcePoint"/>
                        <mxPoint x="387" y="120" as="targetPoint"/>
                    </mxGeometry>
                </mxCell>
                <mxCell id="3" value="process.exit" style="rounded=0;whiteSpace=wrap;html=1;strokeColor=#06A254;strokeWidth=1;fontColor=#c4f8e9;fontStyle=1;fillStyle=solid;" vertex="1" parent="1">
                    <mxGeometry x="310" y="130" width="155" height="50" as="geometry"/>
                </mxCell>
            </root>
        </mxGraphModel>
    </diagram>
</mxfile>